<svg xmlns="http://www.w3.org/2000/svg" width="1400" height="900" viewBox="0 0 1400 900">
  <defs>
    <linearGradient id="sky" x1="0" y1="0" x2="1" y2="1">
      <stop offset="0" stop-color="#dff7f3"/>
      <stop offset="1" stop-color="#dbeafe"/>
    </linearGradient>
    <linearGradient id="wall" x1="0" y1="0" x2="0" y2="1">
      <stop offset="0" stop-color="#ffffff"/>
      <stop offset="1" stop-color="#e2e8f0"/>
    </linearGradient>
  </defs>
  <rect width="1400" height="900" fill="url(#sky)"/>
  <circle cx="145" cy="130" r="95" fill="#facc15" opacity=".45"/>
  <circle cx="1100" cy="130" r="180" fill="#60a5fa" opacity=".16"/>
  <circle cx="230" cy="680" r="260" fill="#14b8a6" opacity=".10"/>
  <g opacity=".55" stroke="#0f172a" stroke-opacity=".18" stroke-width="6" stroke-linejoin="round">
    <path d="M160 720V335l235-145 235 145v385z" fill="url(#wall)"/>
    <path d="M115 350l280-174 280 174" fill="none" stroke="#0f766e" stroke-opacity=".55" stroke-width="18" stroke-linecap="round"/>
    <rect x="255" y="410" width="90" height="86" rx="14" fill="#bfdbfe"/>
    <rect x="445" y="410" width="90" height="86" rx="14" fill="#bfdbfe"/>
    <rect x="340" y="570" width="110" height="150" rx="18" fill="#94a3b8"/>
    <circle cx="430" cy="645" r="7" fill="#f8fafc"/>
    <path d="M670 720V290h500v430z" fill="url(#wall)"/>
    <path d="M640 290h560" stroke="#2563eb" stroke-opacity=".48" stroke-width="20" stroke-linecap="round"/>
    <rect x="735" y="360" width="82" height="82" rx="14" fill="#bfdbfe"/>
    <rect x="900" y="360" width="82" height="82" rx="14" fill="#bfdbfe"/>
    <rect x="1060" y="360" width="82" height="82" rx="14" fill="#bfdbfe"/>
    <rect x="735" y="520" width="82" height="82" rx="14" fill="#bfdbfe"/>
    <rect x="900" y="520" width="82" height="82" rx="14" fill="#bfdbfe"/>
    <rect x="1060" y="520" width="82" height="82" rx="14" fill="#bfdbfe"/>
    <path d="M85 723h1230" stroke="#0f172a" stroke-opacity=".18" stroke-width="10" stroke-linecap="round"/>
  </g>
</svg>
